<svg xmlns="http://www.w3.org/2000/svg" xmlns:xlink="http://www.w3.org/1999/xlink" width="684.943" height="404.618" viewBox="0 0 684.943 404.618">
  <defs>
    <linearGradient id="linear-gradient" x1="0.5" y1="1" x2="0.5" gradientUnits="objectBoundingBox">
      <stop offset="0" stop-color="gray" stop-opacity="0.251"/>
      <stop offset="0.54" stop-color="gray" stop-opacity="0.122"/>
      <stop offset="1" stop-color="gray" stop-opacity="0.102"/>
    </linearGradient>
    <linearGradient id="linear-gradient-3" x1="0.5" y1="1" x2="0.5" y2="0" xlink:href="#linear-gradient"/>
    <linearGradient id="linear-gradient-4" x1="0.5" y1="1" x2="0.5" y2="0" xlink:href="#linear-gradient"/>
  </defs>
  <g id="undraw_web_devices_ad58" transform="translate(0.001 0)">
    <path id="Path_1053" data-name="Path 1053" d="M182.1,144.046c-5.329-.152-10.79,0-15.788,1.534-13.6,4.178-20.046,17.851-17.95,29.665s10.717,22.109,19.662,31.517,18.638,18.71,23.543,29.956c2.446,5.613,3.59,11.9,1.1,17.507-3.835,8.641-15.4,13.467-26.5,14.472s-22.247-.952-33.388-1.607c-4.674-.271-9.481-.3-13.884.959-4.833,1.375-8.859,4.185-12.562,7.114C91.89,286.654,80.327,302.33,82.2,318.8c2.116,18.664,20.985,33.414,41.652,41.328,6.843,2.645,14.082,4.747,20.105,8.489,15.867,9.871,19.431,28.383,17.851,44.72s-6.962,32.693-3.967,48.885c3.524,18.836,19.12,35.854,40.158,43.8,18.743,7.081,42.2,6.611,58.842-3.378,8.112-4.879,14.248-11.656,19.583-18.664a150.569,150.569,0,0,0,19.471-33.718c2.321-5.613,4.5-11.649,9.917-15.55,3.306-2.4,7.59-3.742,11.828-4.787,12.773-3.147,26.227-4.007,39.12-6.81s25.864-8.046,32.872-17.368c9.917-13.223,5.289-30.161,5.335-45.711.079-35.477,25.857-67.231,35.371-101.816,3.107-11.3,4.264-23.8-2.678-33.883-4.714-6.843-12.667-11.782-21.024-15.6-18.386-8.39-39.285-12.125-59.84-15.762-28.568-5.051-63.258-5.706-85.4-22.049C240.145,155.239,211.074,144.046,182.1,144.046Z" transform="translate(-82 -144)" fill="#6c63ff" opacity="0.2"/>
    <ellipse id="Ellipse_232" data-name="Ellipse 232" cx="307.431" cy="82.325" rx="307.431" ry="82.325" transform="translate(70.081 239.968)" fill="#f5f5f5"/>
    <path id="Path_1054" data-name="Path 1054" d="M1022.142,330.86s-23.689,23.689-10.314,58.842S988.9,483.312,988.9,483.312s.39-.06,1.111-.185c48.653-8.595,72.831-64.236,45.777-105.578C1025.732,362.185,1017.474,344.175,1022.142,330.86Z" transform="translate(-389.312 -207.319)" fill="#6c63ff"/>
    <path id="Path_1055" data-name="Path 1055" d="M1022.142,330.86s-13.375,29.037,0,52.726,2.294,90.173-33.242,99.727" transform="translate(-389.312 -207.319)" fill="none" stroke="#535461" stroke-miterlimit="10" stroke-width="2"/>
    <path id="Path_1056" data-name="Path 1056" d="M1061.242,475.638s-27.034-4.3-29.494,19.92-51.979,27.583-51.979,27.583l.926.615c40.885,26.836,80,17.1,74.048-18.512C1052.582,491.969,1052.76,478.66,1061.242,475.638Z" transform="translate(-386.218 -256.278)" fill="#6c63ff"/>
    <path id="Path_1057" data-name="Path 1057" d="M1061.242,475.638s-27.034-4.3-29.494,19.92-51.979,27.583-51.979,27.583l.926.615c40.885,26.836,80,17.1,74.048-18.512C1052.582,491.969,1052.76,478.66,1061.242,475.638Z" transform="translate(-386.218 -256.278)" fill="#f5f5f5" opacity="0.2"/>
    <path id="Path_1058" data-name="Path 1058" d="M1061.242,475.79s-20.985,4.628-19.259,23.682-31.16,41.949-62.213,23.8" transform="translate(-386.218 -256.43)" fill="none" stroke="#535461" stroke-miterlimit="10" stroke-width="2"/>
    <path id="Path_1059" data-name="Path 1059" d="M780.545,454.252H738.073a14.161,14.161,0,0,0,1.481-6.327V254.5a14.221,14.221,0,0,0-14.221-14.221H396.521A14.221,14.221,0,0,0,382.293,254.5v193.43a14.161,14.161,0,0,0,1.481,6.327H339.8a3.762,3.762,0,0,0-3.762,3.762v3.035a21.038,21.038,0,0,0,21.038,21.018H763.269a21.037,21.037,0,0,0,21.038-21.038V458a3.762,3.762,0,0,0-3.762-3.749ZM518.806,466.284l-3.623-4.132h90.391l-4.033,4.139Z" transform="translate(-168.084 -176.625)" fill="url(#linear-gradient)"/>
    <rect id="Rectangle_160" data-name="Rectangle 160" width="349.162" height="216.848" rx="23.26" transform="translate(218.249 66.392)" fill="#535461"/>
    <rect id="Rectangle_161" data-name="Rectangle 161" width="333.724" height="177.153" transform="translate(225.594 98.001)" fill="#fff"/>
    <circle id="Ellipse_233" data-name="Ellipse 233" cx="2.942" cy="2.942" r="2.942" transform="translate(389.517 79.621)" fill="#fff"/>
    <path id="Path_1060" data-name="Path 1060" d="M614.679,560.73l-11.471,11.762H522.35L511.99,560.73H347.406a3.676,3.676,0,0,0-3.676,3.676v2.962a20.561,20.561,0,0,0,20.561,20.561H761.274a20.561,20.561,0,0,0,20.561-20.561v-2.962a3.676,3.676,0,0,0-3.676-3.676Z" transform="translate(-170.69 -285.213)" fill="#535461"/>
    <path id="Path_1061" data-name="Path 1061" d="M501.639,301.65H360.862a12.9,12.9,0,0,0-12.912,12.879V509.566a12.9,12.9,0,0,0,12.912,12.879H501.639a12.9,12.9,0,0,0,12.912-12.879V314.529a12.9,12.9,0,0,0-12.912-12.879Z" transform="translate(-172.12 -197.421)" fill="url(#linear-gradient)"/>
    <rect id="Rectangle_162" data-name="Rectangle 162" width="162.641" height="216.193" rx="20" transform="translate(177.807 106.873)" fill="#535461"/>
    <rect id="Rectangle_163" data-name="Rectangle 163" width="146.112" height="175.295" transform="translate(186.071 127.322)" fill="#fff"/>
    <circle id="Ellipse_234" data-name="Ellipse 234" cx="1.983" cy="1.983" r="1.983" transform="translate(256.483 114.807)" fill="#fff"/>
    <circle id="Ellipse_235" data-name="Ellipse 235" cx="5.95" cy="5.95" r="5.95" transform="translate(252.516 306.538)" fill="#fff"/>
    <path id="Path_1062" data-name="Path 1062" d="M377.393,401.65H305.11a7.147,7.147,0,0,0-7.16,7.134v158.29a7.147,7.147,0,0,0,7.16,7.134h72.283a7.147,7.147,0,0,0,7.16-7.134V408.784a7.147,7.147,0,0,0-7.16-7.134Z" transform="translate(-155.177 -231.307)" fill="url(#linear-gradient-3)"/>
    <rect id="Rectangle_164" data-name="Rectangle 164" width="85.287" height="170.574" rx="11" transform="translate(143.427 171.665)" fill="#535461"/>
    <rect id="Rectangle_165" data-name="Rectangle 165" width="72.726" height="138.84" transform="translate(149.708 187.533)" fill="#fff"/>
    <circle id="Ellipse_236" data-name="Ellipse 236" cx="0.661" cy="0.661" r="0.661" transform="translate(176.815 178.938)" fill="#fff"/>
    <rect id="Rectangle_166" data-name="Rectangle 166" width="14.545" height="1.322" rx="0.661" transform="translate(180.782 178.938)" fill="#fff"/>
    <circle id="Ellipse_237" data-name="Ellipse 237" cx="4.628" cy="4.628" r="4.628" transform="translate(181.113 328.356)" fill="#fff"/>
    <path id="Path_1063" data-name="Path 1063" d="M283.961,631.563s-8.767-29.751,1.646-51.662a47,47,0,0,0,3.821-29.494,79.051,79.051,0,0,0-4.172-13.838" transform="translate(-149.268 -277.026)" fill="none" stroke="#535461" stroke-miterlimit="10" stroke-width="2"/>
    <path id="Path_1064" data-name="Path 1064" d="M290.673,512.241c0,3.65-6.611,14.221-6.611,14.221s-6.611-10.578-6.611-14.221a6.611,6.611,0,0,1,13.223,0Z" transform="translate(-148.23 -266.542)" fill="#6c63ff"/>
    <path id="Path_1065" data-name="Path 1065" d="M307.2,540.832c-1.983,3.061-13.276,8.35-13.276,8.35s.2-12.469,2.188-15.53a6.611,6.611,0,1,1,11.087,7.18Z" transform="translate(-153.811 -274.928)" fill="#6c63ff"/>
    <path id="Path_1066" data-name="Path 1066" d="M305.206,592.057c-3.259,1.64-15.676.509-15.676.509s6.473-10.658,9.725-12.3a6.611,6.611,0,0,1,5.95,11.795Z" transform="translate(-152.324 -291.634)" fill="#6c63ff"/>
    <path id="Path_1067" data-name="Path 1067" d="M295.925,631.778c-2.935,2.169-15.365,3.147-15.365,3.147s4.575-11.6,7.511-13.765a6.611,6.611,0,0,1,7.854,10.618Z" transform="translate(-149.284 -305.313)" fill="#6c63ff"/>
    <path id="Path_1068" data-name="Path 1068" d="M271.765,553.966c2.645,2.539,14.8,5.177,14.8,5.177s-2.982-12.105-5.6-14.644a6.611,6.611,0,1,0-9.2,9.474Z" transform="translate(-145.547 -279.004)" fill="#6c63ff"/>
    <path id="Path_1069" data-name="Path 1069" d="M260.457,599.617c3.259,1.64,15.676.509,15.676.509s-6.473-10.658-9.725-12.3a6.611,6.611,0,1,0-5.95,11.795Z" transform="translate(-141.154 -294.11)" fill="#6c63ff"/>
    <path id="Path_1070" data-name="Path 1070" d="M257.206,646.378c2.935,2.169,15.365,3.147,15.365,3.147s-4.575-11.6-7.511-13.765a6.611,6.611,0,0,0-7.854,10.618Z" transform="translate(-140.548 -310.26)" fill="#6c63ff"/>
    <path id="Path_1071" data-name="Path 1071" d="M922.934,485.731c-7.319-8.879-16.185-19.081-14.942-30.9,1-9.567-1.4-18.413-.926-28.013.661-13.639-2.076-24.317-11.9-33.057-5.739-5.111-15.332-9.124-18.188-8.1-5.659,2.023-11.834,1.25-17.659,2.645-4.423,1.031-7.365,2.645-9.19,4.628-3.669,3.306-3.729,7.934-2.056,12.859a21.718,21.718,0,0,0,10.73,30.465c-4.079,1.706-7.6,5.633-8.978,13.606a93.017,93.017,0,0,1-4.317,16.072,26.126,26.126,0,0,1-2.645,1.064c.2.079.4.132.6.2-.43.165-.853.331-1.322.476a14.02,14.02,0,0,0,2.413.7,92.043,92.043,0,0,1-11.9,21.639s-12.33,2.724-17.124-2.043c0,0,.78.912,1.838,2.281-4.687-1.944-12.383-5.117-18.962-7.729-4.773-1.9-6,0-5.95,2.645a8.806,8.806,0,0,0-3.306,1.111,32.184,32.184,0,0,0-4.423-2.38c-2.737-.661-11.643-5.448-20.548,10.889-5.183,9.5-18.472,26.842-28.687,39.668-19.867,9.137-45.731,20.707-55.344,23.616h-6.162c-.807-1.322-1.369-2.155-1.369-2.155l-.476.317-.2-.317s-12.1,8.377-24.383,8.443a23.143,23.143,0,0,1-5.183-.661c-5.646-1.422-9.626-2.056-12.469-1.983-3.365-.06-5.289.74-6.453,2.248h0a5.891,5.891,0,0,0-.43.621h0a7.306,7.306,0,0,0-.357.661h0c-.106.238-.212.489-.3.747a1.534,1.534,0,0,0,.384,1.289,6.881,6.881,0,0,0,.536.661l.344.37a54.624,54.624,0,0,0,7.868,6.089c1.012.661,2.083,1.388,3.2,2.109l2.122,1.322,1.9,1.183.76.469.846.516,1.514.919.9.542,1.7,1.012,1.375.813c3.6,2.122,7.18,4.178,10.413,6l2.261,1.349.218.119,1.455.813,2.512,1.395,1.726.952.807.443.866.476.172.093,1.507.82a2.182,2.182,0,0,0,1.759-.476c.436-1.851,1.5-5.818,2.645-6.122s6.1-8.958,7.491-14.75H693a58.919,58.919,0,0,0,7.828-1.2c-3.451,2.459-6.869,4.006-9.527,3.345-5.62-1.395-10.942,2.03-11.477,5.408a.868.868,0,0,1-.066.212c-.02.073-.033.139-.046.2s-.04.165-.053.251a1.126,1.126,0,0,0,0,.212v.912a1.33,1.33,0,0,0,.066.271c.026.093,0,.119.046.172a3.312,3.312,0,0,0,.146.35l.033.086a3.547,3.547,0,0,0,.251.417l.106.139a2.8,2.8,0,0,0,.218.271l.152.152c.079.079.165.159.251.238l.185.152.3.218.218.145.357.212.238.126.45.212.225.1c.238.1.489.192.76.278.43.139.939.284,1.514.43l.575.139.84.192.443.1q.859.185,1.825.37l.893.165.727.132,1.673.291c1.045.179,2.135.357,3.306.529l2.883.436,3.755.536.833.112,1.322.185,1.937.258,1.322.172h0l3.431.436,1.071.132,2.162.264c2.843.344,5.593.661,8.125.945l2.929.331,1.481.165.661.066,1.772.192.985.106,1.217.126,1.712.179h.185l1.1.112h0a1,1,0,0,0,1.1-.972h0v-.112a.965.965,0,0,0,.159-.516,22.483,22.483,0,0,1,.615-4.84c.073-.271.159-.549.251-.826l.106-.317c.119-.337.238-.661.377-1.025a7.356,7.356,0,0,0,.258-.754.929.929,0,0,1,.073-.245c.026-.086.066-.271.093-.41,1.375-4.7-.284-13.467-.76-16.912a18.365,18.365,0,0,0-.754-3.24,1.329,1.329,0,0,0,.258,0,7.8,7.8,0,0,0,1.983-1.078c10.1-3.6,18.618-7.722,21.309-11.848a18.452,18.452,0,0,1,13.011,1.362c5.23,2.6,44.792,15.51,63.212,21.474,3.306,2.849,5.9,4.516,7.332,4.39,0,0,23.451,3.795,32.879-3.61.84.582,1.369.893,1.369.893s13.7-6.8,15.755-15.656c.661-2.869,1.263-7.1,1.878-11.782a17.13,17.13,0,0,0,4.972-12.039c.43-14.862,6.188-31.841,10.459-46.941,5.183.41,7.187-.569,11.94-2.916l-.212-.271C922.339,486.009,922.636,485.877,922.934,485.731ZM844.4,507.992l-2.645-.879a21.81,21.81,0,0,0,2.281-3.795Zm-14.737,6.254,15.867,9.52.139,1.937a13.887,13.887,0,0,0,.132,4.43c-6.995-6.215-15.18-13.758-16.145-15.894Zm-6.479-13.884c-1.732-.714-3.167-1.362-4.152-1.9,1.322.093,2.578.172,3.676.231a8.222,8.222,0,0,1,.476,1.666Zm-42.5,15.517s2.737-6.122,8.906,4.086c.959,1.587,2.724,4.112,5.058,7.24l-17.957-2.4a25.78,25.78,0,0,0,3.993-8.919Z" transform="translate(-265.099 -225.837)" fill="url(#linear-gradient-4)"/>
    <path id="Path_1072" data-name="Path 1072" d="M907.038,540.375s-12.562-5.289-22.479-9.256-3.967,9.256-3.967,9.256,16.528,4.628,16.528,5.289,13.884,1.322,13.884,1.322Z" transform="translate(-352.011 -274.927)" fill="#f7c4a7"/>
    <path id="Path_1073" data-name="Path 1073" d="M907.038,540.375s-12.562-5.289-22.479-9.256-3.967,9.256-3.967,9.256,16.528,4.628,16.528,5.289,13.884,1.322,13.884,1.322Z" transform="translate(-352.011 -274.927)" opacity="0.05"/>
    <path id="Path_1074" data-name="Path 1074" d="M972,464.932s-22.479-11.9-26.446,11.239a94.471,94.471,0,0,1-16.528,39.007s-11.9,2.645-16.529-1.983c0,0,11.239,13.223,5.95,14.545,0,0,11.9,8.595,17.19,5.95s9.256-20.5,11.239-25.123S956.135,463.61,972,464.932Z" transform="translate(-363.423 -251.714)" fill="#575988"/>
    <path id="Path_1075" data-name="Path 1075" d="M972,464.932s-22.479-11.9-26.446,11.239a94.471,94.471,0,0,1-16.528,39.007s-11.9,2.645-16.529-1.983c0,0,11.239,13.223,5.95,14.545,0,0,11.9,8.595,17.19,5.95s9.256-20.5,11.239-25.123S956.135,463.61,972,464.932Z" transform="translate(-363.423 -251.714)" opacity="0.1"/>
    <path id="Path_1076" data-name="Path 1076" d="M983.5,445.642s13.884,15.867,14.545,29.09,15.867-13.884,17.19-14.545-13.223-23.14-14.545-30.413S983.5,445.642,983.5,445.642Z" transform="translate(-387.482 -240.358)" fill="#f7c4a7"/>
    <path id="Path_1077" data-name="Path 1077" d="M911.51,320.75l-8.76,7.934,4.132,16.694L918.122,334.8,916.8,324.221Z" transform="translate(-305.905 -108.689)" fill="#f7c4a7"/>
    <path id="Path_1078" data-name="Path 1078" d="M631.706,498.5H616.5l5.95,14.545L637,509.078Z" transform="translate(-208.907 -168.921)" fill="#f7c4a7"/>
    <path id="Path_1079" data-name="Path 1079" d="M679.26,639.33s-15.748,10.968-29.2,7.557-17.11-2.135-18.677,2.268c-1.448,4.053,37.579,25.487,43.8,28.872a.714.714,0,0,0,1.038-.463c.423-1.8,1.448-5.653,2.545-5.95,1.428-.383,7.934-12.562,7.577-17.348S679.26,639.33,679.26,639.33Z" transform="translate(-268.149 -311.847)" opacity="0.1"/>
    <path id="Path_1080" data-name="Path 1080" d="M678.26,639.33s-15.748,10.968-29.2,7.557-17.11-2.135-18.677,2.268c-1.448,4.053,37.579,25.487,43.8,28.872a.714.714,0,0,0,1.038-.463c.423-1.8,1.448-5.653,2.545-5.95,1.428-.383,7.934-12.562,7.577-17.348S678.26,639.33,678.26,639.33Z" transform="translate(-267.811 -311.847)" fill="#f3b5b7"/>
    <path id="Path_1081" data-name="Path 1081" d="M835.456,596.45l-44.3-5.95s-72.064,34.379-80.659,35.04l1.983,15.206h13.223c5.289,0,56.858-11.239,64.131-22.479A17.7,17.7,0,0,1,802.4,619.59c6.611,3.306,70.081,23.8,70.081,23.8Z" transform="translate(-294.973 -295.301)" fill="#575988"/>
    <path id="Path_1082" data-name="Path 1082" d="M835.456,596.45l-44.3-5.95s-72.064,34.379-80.659,35.04l1.983,15.206h13.223c5.289,0,56.858-11.239,64.131-22.479A17.7,17.7,0,0,1,802.4,619.59c6.611,3.306,70.081,23.8,70.081,23.8Z" transform="translate(-294.973 -295.301)" opacity="0.1"/>
    <path id="Path_1083" data-name="Path 1083" d="M694.773,486.5l-7.273,9.256,7.273,3.967,10.578-7.934Z" transform="translate(-232.966 -164.855)" fill="#f7c4a7"/>
    <path id="Path_1084" data-name="Path 1084" d="M905.422,586.472s-23.8-20.376-25.447-24.072-40.667-28.819-43.311-29.48S825.424,527.63,816.83,543.5s-40.33,54.214-40.33,54.214,9.917,13.884,13.223,13.223,40.33-31.735,42.974-46.941c0,0,2.645-5.95,8.595,3.967s44.3,57.519,51.569,56.858c0,0,28.429,4.628,34.379-6.611S905.422,586.472,905.422,586.472Z" transform="translate(-317.338 -275.405)" fill="#575988"/>
    <path id="Path_1085" data-name="Path 1085" d="M979.632,467.492s-8.264,3.636-8.925,18.843S955.5,527.325,955.5,527.325l1.322,30.412s15.867,15.867,17.19,25.785,12.562,16.529,12.562,16.529,13.223-6.611,15.206-15.206,3.306-29.751,6.611-37.685,1.322-57.519,1.322-57.519L999.8,472.45l-5.289-5.95-13.884,15.867S973.02,472.12,979.632,467.492Z" transform="translate(-377.994 -253.282)" fill="#dddbe2"/>
    <path id="Path_1086" data-name="Path 1086" d="M959.45,548.284s-1.983-23.8,3.967-29.09l11.9-33.718s4.3-16.2,3.636-17.52-15.537,12.892-15.537,12.892l-9.917,35.04,2.645,37.024Z" transform="translate(-377.316 -253.746)" opacity="0.1"/>
    <path id="Path_1087" data-name="Path 1087" d="M958.45,548.116s-1.984-23.8,3.967-29.09l11.9-33.718s4.628-16.529,3.967-17.851-15.867,13.223-15.867,13.223L952.5,515.72l2.645,37.024Z" transform="translate(-376.977 -253.577)" fill="#575988"/>
    <path id="Path_1088" data-name="Path 1088" d="M934.435,560.528s-33.057-10.578-35.04-13.223-23.14-19.834-30.413-7.934,27.107,15.206,27.107,15.206l35.041,21.156Z" transform="translate(-348.334 -276.568)" fill="#f7c4a7"/>
    <path id="Path_1089" data-name="Path 1089" d="M759.456,643.509l-9.785-1.759S733.646,662.278,725.3,660.2s-16.033,6.9-7.213,9.785c7.967,2.6,42.373,6.248,48.924,6.922a.965.965,0,0,0,1.064-.939,21.048,21.048,0,0,1,1.521-7.451c1.765-4.33,0-13.633-.489-17.19a17.079,17.079,0,0,0-1.924-5.95Z" transform="translate(-296.215 -312.667)" opacity="0.1"/>
    <path id="Path_1090" data-name="Path 1090" d="M759.215,644.479l-9.785-1.759s-16.026,20.528-24.363,18.453-16.033,6.9-7.213,9.785c7.967,2.6,42.372,6.248,48.924,6.922a.965.965,0,0,0,1.064-.939A21.052,21.052,0,0,1,769.3,669.5c1.765-4.331,0-13.633-.489-17.19a17.076,17.076,0,0,0-1.924-5.95Z" transform="translate(-296.139 -312.996)" fill="#f3b5b7"/>
    <circle id="Ellipse_238" data-name="Ellipse 238" cx="21" cy="21" r="21" transform="translate(579.94 170.618)" opacity="0.1"/>
    <circle id="Ellipse_239" data-name="Ellipse 239" cx="21" cy="21" r="21" transform="translate(577.94 170.618)" fill="#f7c4a7"/>
    <path id="Path_1091" data-name="Path 1091" d="M1004.741,465.5s25.123,8.595,25.123,26.446-13.884,46.28-14.545,69.42S978.3,581.2,978.3,581.2s-5.289-78.015,0-83.965S1007.385,468.145,1004.741,465.5Z" transform="translate(-384.922 -252.943)" fill="#575988"/>
    <path id="Path_1092" data-name="Path 1092" d="M993.427,512.623s-9.256,40.991-31.074,33.718c0,0-11.239,16.529-3.306,23.8,0,0,19.173,4.628,31.735-7.934s21.818-17.19,23.8-32.4,3.306-36.363-3.306-34.379S993.427,512.623,993.427,512.623Z" transform="translate(-378.235 -263.042)" opacity="0.1"/>
    <path id="Path_1093" data-name="Path 1093" d="M994.427,511.623s-9.256,40.991-31.074,33.718c0,0-11.239,16.528-3.306,23.8,0,0,19.173,4.628,31.735-7.934s21.818-17.19,23.8-32.4,3.306-36.363-3.306-34.379S994.427,511.623,994.427,511.623Z" transform="translate(-378.574 -262.704)" fill="#575988"/>
    <path id="Path_1094" data-name="Path 1094" d="M797.977,680a.607.607,0,0,1-.06.185,19.358,19.358,0,0,0-1.038,3.5c.159-.516.344-1.045.555-1.574A9.6,9.6,0,0,0,797.977,680Z" transform="translate(-324.244 -325.629)" fill="#dddbe2"/>
    <path id="Path_1095" data-name="Path 1095" d="M718.336,680.507c-2.724-.892-3.868-2.36-3.914-3.907-1.124,2.155-.417,4.575,3.431,5.831,7.967,2.6,42.379,6.248,48.924,6.922a.965.965,0,0,0,1.064-.945h0a.972.972,0,0,0-.866-.985C759.8,686.656,726.2,683.073,718.336,680.507Z" transform="translate(-296.138 -324.476)" fill="#dddbe2"/>
    <path id="Path_1096" data-name="Path 1096" d="M631.3,651.712a8.144,8.144,0,0,1,.661-1.4,6.446,6.446,0,0,0-1.554,2.565c-1.448,4.053,37.579,25.487,43.8,28.872a.714.714,0,0,0,1.038-.469h0a.714.714,0,0,0-.35-.793C668.022,676.723,629.874,655.718,631.3,651.712Z" transform="translate(-267.821 -315.568)" fill="#dddbe2"/>
    <path id="Path_1097" data-name="Path 1097" d="M702.918,686.227c-.35.093-.694.562-1.018,1.2l.106-.04c.291-.079.787-.661,1.388-1.521a1.284,1.284,0,0,1-.476.357Z" transform="translate(-292.059 -327.618)" fill="#dddbe2"/>
    <path id="Path_1098" data-name="Path 1098" d="M972.632,437.672c-1.865,4.112-2.255,8.747-3.623,13.057a28.712,28.712,0,0,1-17.7,18.353c6.869,2.737,14.975-.608,20.284-6.162s8.423-12.945,11.4-20.138c7.709,5.183,6.77,17.1,9.362,26.373a29.249,29.249,0,0,0,15.57,18.611,27.88,27.88,0,0,0,23.847-.483c-7.068-8.595-17.13-20.449-15.934-31.927.972-9.3-5.7-16.4-5.243-25.725.661-13.223-4.4-19.94-13.884-28.429-5.54-4.965,3.18-11.967-3.967-9.917-2.81.807-5.772-2.2-8.529-1.21-5.461,1.983-11.424,1.216-17.044,2.539C937.968,399.477,975.356,431.668,972.632,437.672Z" transform="translate(-376.574 -227.316)" opacity="0.1"/>
    <path id="Path_1099" data-name="Path 1099" d="M973.632,436.568c-1.865,4.112-2.255,8.747-3.623,13.058a28.712,28.712,0,0,1-17.7,18.353c6.869,2.737,14.975-.608,20.284-6.162s8.423-12.945,11.4-20.138c7.709,5.183,6.77,17.1,9.362,26.373a29.249,29.249,0,0,0,15.57,18.611,27.88,27.88,0,0,0,23.847-.483c-7.068-8.595-16.469-18.466-15.272-29.943.972-9.3-.476-18.849,0-28.171.661-13.223-5.825-26-15.312-34.485-5.54-4.965-14.195-5.6-16.958-4.628-5.461,1.983-11.425,1.216-17.044,2.539C938.968,398.374,976.356,430.565,973.632,436.568Z" transform="translate(-376.913 -226.874)" fill="#fc6681"/>
  </g>
</svg>
