<svg xmlns="http://www.w3.org/2000/svg" width="592.274" height="535.191" viewBox="0 0 592.274 535.191">
  <g id="Group_12" data-name="Group 12" transform="translate(-697.739 -159.861)">
    <path id="Path_1100" data-name="Path 1100" d="M732.754,499.057c-28.647-60.309-7.539-218.62,174.9-211.081s197.718-123.821,290.5-81,12.15,83.7,6.521,153.369,108.556,244.251-84.433,260.836-247.267,137.2-351.3,66.34S761.4,559.366,732.754,499.057Z" transform="translate(47 -15)" fill="#6c63ff" stroke="#707070" stroke-width="1" opacity="0.33"/>
    <path id="Path_1101" data-name="Path 1101" d="M-37.883,1343.878c140.974-17.088,81.815,9.2,159.854-67.037,68.6-67.013,174.147-61.919,223.212,12.614a145.318,145.318,0,0,1,15.94,33.392c35.243,105.155,137.2,377.246-239.152,400.906a491.1,491.1,0,0,1-50.049.7C-247.135,1711.9-172.231,1360.162-37.883,1343.878Z" transform="translate(851 -1070)" fill="#bcb9ec" opacity="0.59"/>
    <g id="undraw_feeling_proud_qne1" transform="translate(789.692 199.433)">
      <path id="Path_953" data-name="Path 953" d="M516.326,380.018v114.74l19.193,31.278,1.461,2.379h75.729l1.53-148.4Z" transform="translate(-196.083 -144.328)" fill="#e6e6e6"/>
      <path id="Path_954" data-name="Path 954" d="M516.326,380.018v114.74l19.193,31.278L536.7,380.018Z" transform="translate(-196.083 -144.328)" opacity="0.1"/>
      <path id="Path_955" data-name="Path 955" d="M161.615,375.084V489.825L142.423,521.1l-1.461,2.379H65.233l-1.53-148.4Z" transform="translate(-24.192 -142.455)" fill="#e6e6e6"/>
      <path id="Path_956" data-name="Path 956" d="M209.093,375.084V489.825L189.9,521.1l-1.178-146.019Z" transform="translate(-71.67 -142.455)" opacity="0.1"/>
      <path id="Path_957" data-name="Path 957" d="M459.207,357.334v6.884H47.67v-9.944l38.247-19.888H425.55Z" transform="translate(-18.103 -126.999)" fill="#e6e6e6"/>
      <path id="Path_958" data-name="Path 958" d="M459.207,369.511V376.4H47.67v-9.944Z" transform="translate(-18.103 -139.176)" opacity="0.1"/>
      <path id="Path_959" data-name="Path 959" d="M126.71,423.6H108.351L100.7,418.25h34.422Z" transform="translate(-38.243 -158.848)" fill="#3f3d56"/>
      <path id="Path_960" data-name="Path 960" d="M126.71,459.37H108.351l-7.649-5.354h34.422Z" transform="translate(-38.243 -172.43)" fill="#3f3d56"/>
      <path id="Path_961" data-name="Path 961" d="M126.71,509.936H108.351l-7.649-5.355h34.422Z" transform="translate(-38.243 -191.633)" fill="#3f3d56"/>
      <path id="Path_962" data-name="Path 962" d="M126.71,560.5H108.351l-7.649-5.354h34.422Z" transform="translate(-38.243 -210.836)" fill="#3f3d56"/>
      <path id="Path_963" data-name="Path 963" d="M590.105,428.538h18.359l7.649-5.355H581.691Z" transform="translate(-220.906 -160.721)" fill="#3f3d56"/>
      <path id="Path_964" data-name="Path 964" d="M590.105,464.3h18.359l7.649-5.354H581.691Z" transform="translate(-220.906 -174.304)" fill="#3f3d56"/>
      <path id="Path_965" data-name="Path 965" d="M590.105,514.87h18.359l7.649-5.355H581.691Z" transform="translate(-220.906 -193.507)" fill="#3f3d56"/>
      <path id="Path_966" data-name="Path 966" d="M590.105,565.434h18.359l7.649-5.354H581.691Z" transform="translate(-220.906 -212.71)" fill="#3f3d56"/>
      <path id="Path_967" data-name="Path 967" d="M761.609,235.615H607.055a5.844,5.844,0,0,0-5.845,5.846V345.571a5.844,5.844,0,0,0,5.846,5.845h58.669l-2.2,14.034s-12.562,6.673-3.729,6.87,50.442,0,50.442,0,8.047,0-4.711-7.066l-2.068-13.837h58.147a5.844,5.844,0,0,0,5.845-5.846V241.46a5.844,5.844,0,0,0-5.845-5.845Z" transform="translate(-379.908 -160.915)" fill="#3f3d56"/>
      <rect id="Rectangle_102" data-name="Rectangle 102" width="155.056" height="86.753" transform="translate(226.896 80.883)" fill="#f2f2f2"/>
      <circle id="Ellipse_214" data-name="Ellipse 214" cx="0.981" cy="0.981" r="0.981" transform="translate(303.443 77.154)" fill="#f2f2f2"/>
      <circle id="Ellipse_215" data-name="Ellipse 215" cx="3.729" cy="3.729" r="3.729" transform="translate(300.695 178.824)" fill="#f2f2f2"/>
      <path id="Path_968" data-name="Path 968" d="M416.8,353.626v1.963H311.2v-1.57l.145-.393,2.6-7.066H414.638Z" transform="translate(-118.184 -131.622)" fill="#3f3d56"/>
      <path id="Path_969" data-name="Path 969" d="M773.224,465.875c-.192.822-.919,1.69-2.559,2.51-5.888,2.944-17.861-.785-17.861-.785s-9.225-1.57-9.225-5.692a7.367,7.367,0,0,1,.809-.481c2.476-1.31,10.684-4.542,25.238.137a6.069,6.069,0,0,1,2.766,1.813,2.9,2.9,0,0,1,.832,2.5Z" transform="translate(-433.975 -245.793)" fill="#3f3d56"/>
      <path id="Path_970" data-name="Path 970" d="M773.72,465.875c-7.207,2.762-13.631,2.968-20.224-1.611a14.478,14.478,0,0,0-8.612-2.836c2.476-1.31,10.684-4.541,25.238.137a6.069,6.069,0,0,1,2.766,1.813,2.9,2.9,0,0,1,.832,2.5Z" transform="translate(-434.47 -245.793)" opacity="0.1"/>
      <ellipse id="Ellipse_216" data-name="Ellipse 216" cx="2.552" cy="0.785" rx="2.552" ry="0.785" transform="translate(327.662 216.9)" fill="#f2f2f2"/>
      <path id="Path_971" data-name="Path 971" d="M416.8,357.952v1.963H311.2v-1.57l.145-.393Z" transform="translate(-118.184 -135.949)" opacity="0.1"/>
      <path id="Path_972" data-name="Path 972" d="M326.981,115.148a5.306,5.306,0,0,0-3.077.687,8.027,8.027,0,0,0-2.081,2.747A32.863,32.863,0,0,1,312.87,128.7c-2.66,1.949-6.042,4.379-5.587,7.972a10.774,10.774,0,0,0,1.3,3.365c2.454,4.954,9.151,8.782,8.492,14.435,2.438-4.082-.823-6.1,1.615-10.182,1.161-1.944,3.178-4.138,4.931-2.917.587.409.972,1.142,1.583,1.5,1.458.856,3.01-.78,4.3-1.939,4.451-4,10.782-2.949,16.321-1.7,2.615.588,5.487,1.359,7.033,3.858,2.033,3.286-1.931,6.835-2.933,10.551a2.024,2.024,0,0,0,2.173,2.519c1.662-.164,3.631-.3,3.729-1.028,2.091.074,4.653-.162,5.549-2.34a9.154,9.154,0,0,0,.43-2.663c.329-3.658,1.881-6.995,2.91-10.476s1.476-7.561-.26-10.647a12.322,12.322,0,0,0-2.274-2.764C352.332,116.706,339.383,115.134,326.981,115.148Z" transform="translate(-268.269 -115.159)" fill="#2f2e41"/>
      <path id="Path_973" data-name="Path 973" d="M321.653,187.981s2.142,17.849-5.712,19.277,7.14,25.7,7.14,25.7l35.7,4.284-8.568-28.559s-5.712-2.142-2.142-16.421S321.653,187.981,321.653,187.981Z" transform="translate(-270.708 -141.533)" fill="#ffb8b8"/>
      <path id="Path_974" data-name="Path 974" d="M47.028,569.318l2.856,39.269H64.877l-4.283-39.269Z" transform="translate(-17.859 -216.218)" fill="#ffb8b8"/>
      <path id="Path_975" data-name="Path 975" d="M224.3,448.726l2.142,32.843,16.422-7.14L236.44,447.3Z" transform="translate(-85.182 -169.879)" fill="#ffb8b8"/>
      <path id="Path_976" data-name="Path 976" d="M274.167,424.045s.714,41.411,5,54.976,3.57,14.279,2.856,16.421-1.428.714-1.428,4.284-1.428,59.974,0,64.971-4.284,13.566,0,14.28,24.275,0,24.989-4.284-5.712-5.712-2.856-8.568,7.14-61.4,7.14-61.4l10-40.7,18.563-21.419h39.269l12.138,47.122s-5,13.565-1.428,13.565,24.989,4.284,24.989-11.424-7.14-62.116-8.568-63.543.714-6.426-1.428-8.568-27.131-17.135-36.413-19.991-22.3-6.255-22.3-6.255Z" transform="translate(-255.708 -220.88)" fill="#2f2e41"/>
      <path id="Path_977" data-name="Path 977" d="M486.993,596.641s-10.71-3.57-15.707,7.14-2.856,13.566-2.856,13.566,16.421,5.712,19.277,2.856c1.243-1.242,5.188-1.674,9.249-1.765,6.186-.139,7.831-8.89,1.989-10.928q-.261-.091-.529-.158C492.705,605.922,486.993,596.641,486.993,596.641Z" transform="translate(-329.309 -297.803)" fill="#2f2e41"/>
      <circle id="Ellipse_217" data-name="Ellipse 217" cx="21.419" cy="21.419" r="21.419" transform="translate(45.59 15.39)" fill="#ffb8b8"/>
      <path id="Path_978" data-name="Path 978" d="M296.621,231.742s34.985,7.14,43.552-4.284,12.138,32.129,12.138,32.129l4.284,45.694-6.426,24.989S316.612,357.4,305.9,359.543s-27.131,3.57-27.131,3.57,5-79.251,5-80.679S296.621,231.742,296.621,231.742Z" transform="translate(-257.457 -157.091)" fill="#6c63ff"/>
      <path id="Path_979" data-name="Path 979" d="M297.913,212.7s-7.784-4.459-9.926-.175-22.133,14.993-24.275,14.993,4.284,59.26,1.428,66.4-16.421,59.26-8.568,63.544,2.142-4.284,10,6.426,46.408,10.71,48.55,6.426-17.135-36.413-13.566-66.4,9.282-71.4,4.284-77.109S297.913,212.7,297.913,212.7Z" transform="translate(-248.109 -151.439)" fill="#2f2e41"/>
      <path id="Path_980" data-name="Path 980" d="M366.258,219.624l.994-3.422s29.706,9.848,31.134,16.274.714,51.406-4.284,54.976-12.138,9.282-7.14,17.849,10.71,17.849,14.993,18.563,12.138,5.712,10,10.71-27.845-4.284-27.845-4.284-17.135-12.852-16.421-32.843S366.258,219.624,366.258,219.624Z" transform="translate(-290.681 -153.542)" fill="#2f2e41"/>
      <path id="Path_981" data-name="Path 981" d="M386.8,357.554l-17.135,32.129s-24.989,25.7-10.71,28.559,22.133-23.561,22.133-23.561l18.563-26.417Z" transform="translate(-286.234 -207.223)" fill="#ffb8b8"/>
      <path id="Path_982" data-name="Path 982" d="M330.911,124.187a4.861,4.861,0,0,0-2.5.486,5.838,5.838,0,0,0-1.694,1.942,24.669,24.669,0,0,1-7.288,7.148c-2.165,1.377-4.919,3.095-4.548,5.634a7.046,7.046,0,0,0,1.056,2.378,18.708,18.708,0,0,1,2.273,11.661l5.954-8.655c.945-1.374,2.587-2.925,4.014-2.062.478.289.792.807,1.289,1.061,1.187.6,2.45-.551,3.5-1.371,3.624-2.824,8.777-2.084,13.286-1.2,2.129.415,4.467.961,5.725,2.727,2.091,2.936-.092,7.177,1.128,10.569a3.116,3.116,0,0,0,1.289-2.057c1.7.053,3.788-.115,4.517-1.654a5.7,5.7,0,0,0,.35-1.882c.268-2.585,1.531-4.944,2.369-7.4s1.2-5.344-.212-7.526a9.1,9.1,0,0,0-1.851-1.953C351.548,125.288,341.007,124.176,330.911,124.187Z" transform="translate(-271.155 -118.593)" fill="#2f2e41"/>
      <path id="Path_983" data-name="Path 983" d="M403.051,237.836,409.7,239.6s15.481,39.645,11.911,66.776S415.9,327.8,415.9,327.8s-5.712-12.852-18.563-10Z" transform="translate(-302.484 -161.758)" fill="#2f2e41"/>
      <path id="Path_984" data-name="Path 984" d="M285.848,738.144c-1.722,2.34-1.376,5.684-2.9,8.156-1.322,2.143-3.813,3.267-5.467,5.166a13.843,13.843,0,0,0-1.406,2.022c-1.534,2.569-2.781,5.862-1.27,8.445,1.215,2.078,3.77,2.89,6.112,3.444a22.429,22.429,0,0,0,9.033.725c3-.535,5.923-2.369,6.991-5.218a20.159,20.159,0,0,1,.747-2.109c1.623-3.2,6.716-3.231,8.377-6.407,1.163-2.223.094-4.91-.974-7.18l-3.263-6.932c-1.083-2.3-5.473-.977-7.761-1.529C291.08,736.008,288,735.216,285.848,738.144Z" transform="translate(-255.69 -350.965)" fill="#2f2e41"/>
      <path id="Path_985" data-name="Path 985" d="M254.6,377.517l29.987,46.408s18.563,23.561,24.275,12.852-19.991-28.559-19.991-28.559l-19.277-35.7Z" transform="translate(-248.276 -212.906)" fill="#ffb8b8"/>
      <path id="Path_986" data-name="Path 986" d="M265.721,239.264l-5.712-1.428s-11.424,3.57-14.279,18.563-.714,74.967,2.856,75.681,17.632-10.443,19.882-8.077-4.889-9.772-2.747-16.2S265.721,239.264,265.721,239.264Z" transform="translate(-244.406 -161.758)" fill="#2f2e41"/>
      <g id="Group_13" data-name="Group 13" transform="translate(248.057 109.376)">
        <rect id="Rectangle_55" data-name="Rectangle 55" width="18.453" height="4.442" transform="translate(23.238)" fill="#6c63ff"/>
        <rect id="Rectangle_56" data-name="Rectangle 56" width="6.493" height="4.442" transform="translate(99.102)" fill="#6c63ff"/>
        <rect id="Rectangle_57" data-name="Rectangle 57" width="6.493" height="4.442" transform="translate(112.088)" fill="#6c63ff"/>
        <rect id="Rectangle_58" data-name="Rectangle 58" width="44.083" height="4.442" transform="translate(48.184)" fill="#6c63ff"/>
        <rect id="Rectangle_59" data-name="Rectangle 59" width="18.453" height="4.442" transform="translate(0 28.705)" fill="#6c63ff"/>
        <rect id="Rectangle_60" data-name="Rectangle 60" width="6.493" height="4.442" transform="translate(75.864 28.705)" fill="#6c63ff"/>
        <rect id="Rectangle_61" data-name="Rectangle 61" width="6.493" height="4.442" transform="translate(88.85 28.705)" fill="#6c63ff"/>
        <rect id="Rectangle_62" data-name="Rectangle 62" width="44.083" height="4.442" transform="translate(24.946 28.705)" fill="#6c63ff"/>
        <rect id="Rectangle_63" data-name="Rectangle 63" width="18.453" height="4.442" transform="translate(76.206 9.91)" fill="#6c63ff"/>
        <rect id="Rectangle_64" data-name="Rectangle 64" width="18.453" height="4.442" transform="translate(101.152 9.91)" fill="#6c63ff"/>
        <rect id="Rectangle_66" data-name="Rectangle 66" width="6.493" height="4.442" transform="translate(0 9.91)" fill="#6c63ff"/>
        <rect id="Rectangle_67" data-name="Rectangle 67" width="6.493" height="4.442" transform="translate(12.986 9.91)" fill="#6c63ff"/>
        <rect id="Rectangle_68" data-name="Rectangle 68" width="44.083" height="4.442" transform="translate(25.972 9.91)" fill="#6c63ff"/>
        <rect id="Rectangle_69" data-name="Rectangle 69" width="18.453" height="4.442" transform="translate(37.932 19.478)" fill="#6c63ff"/>
        <rect id="Rectangle_70" data-name="Rectangle 70" width="18.453" height="4.442" transform="translate(12.986 19.478)" fill="#6c63ff"/>
        <rect id="Rectangle_71" data-name="Rectangle 71" width="6.493" height="4.442" transform="translate(0 19.478)" fill="#6c63ff"/>
        <rect id="Rectangle_73" data-name="Rectangle 73" width="6.493" height="4.442" transform="translate(113.113 19.478)" fill="#6c63ff"/>
        <rect id="Rectangle_74" data-name="Rectangle 74" width="44.083" height="4.442" transform="translate(62.536 19.478)" fill="#6c63ff"/>
      </g>
    </g>
  </g>
</svg>
